# Blender v2.79 (sub 0) OBJ File: 'Raw meat.blend'
# www.blender.org
mtllib meat.mtl
o Raw_meat_Plane.001
v -0.280213 0.000000 1.429806
v -0.348789 0.000000 -1.590161
v -0.867750 0.000000 1.456748
v -0.808534 0.000000 -1.521506
v -1.028321 0.000000 1.272565
v -0.987995 0.000000 -1.456334
v -1.204003 0.000000 1.153554
v -1.163678 0.000000 -1.462001
v -1.634709 0.000000 1.130885
v -1.594384 0.000000 -1.427998
v -1.901067 0.000000 1.187557
v -1.860742 0.000000 -1.371326
v -1.991742 0.000000 1.176223
v -2.036425 0.000000 -1.269317
v -2.088084 0.000000 -0.761955
v -2.093097 0.000000 -1.087967
v -2.326106 0.000000 1.227227
v -2.167425 0.000000 -0.574938
v -2.371444 0.000000 1.227227
v -2.252432 0.000000 -0.110229
v -2.484787 0.000000 1.136552
v -2.365776 0.000000 -0.008219
v -2.671804 0.000000 0.688844
v -2.581129 0.000000 0.065454
v -2.824818 0.000000 0.267147
v -2.734143 0.000000 0.152788
v -0.042191 0.000000 1.146447
v 0.217929 0.000000 -1.607162
v 0.150493 0.000000 1.078441
v 0.410613 0.000000 -1.578826
v 0.343177 0.000000 1.254124
v 0.603298 0.000000 -1.516487
v 0.496191 0.000000 1.248456
v 0.756312 0.000000 -1.488151
v 0.785218 0.000000 0.970764
v 1.045338 0.000000 -1.437146
v 1.147918 0.000000 0.585396
v 1.345699 0.000000 -1.238795
v 1.295264 0.000000 -0.003992
v 1.447709 0.000000 -1.119784
v 1.470947 0.000000 -0.385016
v 1.561053 0.000000 -0.761428
v -0.219929 0.314150 1.606186
v -0.296446 0.314150 -1.763479
v -0.875501 0.314150 1.636248
v -0.809428 0.314150 -1.686875
v -1.054664 0.314150 1.430737
v -1.009669 0.314150 -1.614156
v -1.250690 0.314150 1.297944
v -1.205695 0.314150 -1.620479
v -1.731270 0.314150 1.272651
v -1.686275 0.314150 -1.582539
v -2.028470 0.314150 1.335885
v -1.983476 0.314150 -1.519305
v -2.129645 0.314150 1.323238
v -2.179502 0.314150 -1.405483
v -2.237143 0.314150 -0.839371
v -2.242736 0.314150 -1.203133
v -2.502727 0.314150 1.380149
v -2.325671 0.314150 -0.630698
v -2.553314 0.314150 1.380148
v -2.420523 0.314150 -0.112178
v -2.679783 0.314150 1.278973
v -2.546991 0.314150 0.001644
v -2.888455 0.314150 0.779424
v -2.787281 0.314150 0.083848
v -3.059188 0.314150 0.308896
v -2.958013 0.314150 0.181294
v 0.045654 0.314150 1.290015
v 0.335895 0.314150 -1.782449
v 0.260650 0.314150 1.214134
v 0.550892 0.314150 -1.750832
v 0.475647 0.314150 1.410160
v 0.765888 0.314150 -1.681275
v 0.646379 0.314150 1.403837
v 0.936620 0.314150 -1.649657
v 0.968873 0.314150 1.093989
v 1.259115 0.314150 -1.592747
v 1.373572 0.314150 0.663996
v 1.594256 0.314150 -1.371427
v 1.537981 0.314150 0.006361
v 1.708078 0.314150 -1.238635
v 1.734007 0.314150 -0.418785
v 1.834546 0.314150 -0.838783
v -0.333900 0.459610 1.272728
v -0.395405 0.459610 -1.435807
v -0.860848 0.459610 1.296891
v -0.807739 0.459610 -1.374233
v -1.004860 0.459610 1.131701
v -0.968693 0.459610 -1.315781
v -1.162425 0.459610 1.024963
v -1.126258 0.459610 -1.320864
v -1.548715 0.459610 1.004632
v -1.512548 0.459610 -1.290368
v -1.787605 0.459610 1.055460
v -1.751438 0.459610 -1.239540
v -1.868929 0.459610 1.045295
v -1.909003 0.459610 -1.148050
v -1.955336 0.459610 -0.693010
v -1.959831 0.459610 -0.985402
v -2.168812 0.459610 1.091039
v -2.026495 0.459610 -0.525279
v -2.209474 0.459610 1.091039
v -2.102736 0.459610 -0.108492
v -2.311129 0.459610 1.009714
v -2.204391 0.459610 -0.017003
v -2.478860 0.459610 0.608176
v -2.397536 0.459610 0.049073
v -2.616095 0.459610 0.229966
v -2.534770 0.459610 0.127400
v -0.120424 0.459610 1.018589
v 0.112871 0.459610 -1.451056
v 0.052389 0.459610 0.957596
v 0.285685 0.459610 -1.425642
v 0.225203 0.459610 1.115162
v 0.458499 0.459610 -1.369732
v 0.362438 0.459610 1.110080
v 0.595734 0.459610 -1.344318
v 0.621659 0.459610 0.861024
v 0.854954 0.459610 -1.298573
v 0.946956 0.459610 0.515396
v 1.124341 0.459610 -1.120676
v 1.079107 0.459610 -0.013211
v 1.215831 0.459610 -1.013938
v 1.236673 0.459610 -0.354943
v 1.317486 0.459610 -0.692538
vt 0.862862 0.742842
vt 0.931548 0.674830
vt 0.882987 0.656107
vt 0.632530 0.210791
vt 0.613915 0.159582
vt 0.598317 0.194331
vt 0.423222 0.163805
vt 0.383739 0.157663
vt 0.392028 0.192611
vt 0.740099 0.832001
vt 0.741799 0.878744
vt 0.772114 0.871091
vt 0.185746 0.473803
vt 0.176025 0.498964
vt 0.205871 0.498493
vt 0.104239 0.407154
vt 0.092940 0.283164
vt 0.062625 0.397049
vt 0.244225 0.779035
vt 0.253626 0.839541
vt 0.275419 0.803725
vt 0.835794 0.472779
vt 0.849698 0.311102
vt 0.809631 0.330126
vt 0.192789 0.174779
vt 0.227673 0.151541
vt 0.161429 0.137766
vt 0.462247 0.840074
vt 0.426534 0.862499
vt 0.462088 0.880099
vt 0.315553 0.198097
vt 0.298408 0.163785
vt 0.666743 0.168269
vt 0.652090 0.177948
vt 0.791417 0.819656
vt 0.829375 0.857317
vt 0.147508 0.455971
vt 0.153570 0.471415
vt 0.644504 0.860806
vt 0.553173 0.898640
vt 0.665450 0.903232
vt 0.207593 0.763016
vt 0.218820 0.811992
vt 0.866988 0.565001
vt 0.878890 0.470274
vt 0.184739 0.174779
vt 0.152447 0.137766
vt 0.399188 0.825671
vt 0.430382 0.824300
vt 0.268259 0.184381
vt 0.245637 0.148480
vt 0.693912 0.169641
vt 0.690264 0.130502
vt 0.844749 0.771647
vt 0.888882 0.803749
vt 0.234162 0.735141
vt 0.208586 0.674972
vt 0.543878 0.856691
vt 0.120339 0.434833
vt 0.110904 0.451519
vt 0.913696 0.573175
vt 0.678717 0.853948
vt 0.703624 0.895579
vt 0.235052 0.656234
vt 0.192867 0.624466
vt 0.164614 0.196726
vt 0.129991 0.162255
vt 0.322713 0.817441
vt 0.391728 0.864029
vt 0.745231 0.236852
vt 0.720579 0.132033
vt 0.080589 0.427933
vt 0.252159 0.187124
vt 0.556055 0.125747
vt 0.450356 0.075781
vt 0.451733 0.119226
vt 0.909092 0.771609
vt 0.566759 0.083057
vt 0.418545 0.125522
vt 0.220965 0.610969
vt 0.712930 0.838859
vt 0.306397 0.854846
vt 0.131408 0.305088
vt 0.777840 0.207027
vt 0.711586 0.797188
vt 0.220718 0.207741
vt 0.773949 0.347068
vt 0.716190 0.263414
vt 0.214401 0.475928
vt 0.232451 0.498072
vt 0.452958 0.157918
vt 0.427388 0.197900
vt 0.825390 0.557722
vt 0.797414 0.475011
vt 0.155739 0.440978
vt 0.180107 0.459936
vt 0.337243 0.784130
vt 0.405832 0.791511
vt 0.257825 0.710317
vt 0.687219 0.803339
vt 0.670163 0.203133
vt 0.546522 0.163766
vt 0.245988 0.598950
vt 0.839740 0.639433
vt 0.141300 0.416153
vt 0.433810 0.790281
vt 0.656535 0.816871
vt 0.273965 0.218813
vt 0.645796 0.201903
vt 0.258623 0.639547
vt 0.821690 0.717224
vt 0.195449 0.227425
vt 0.165667 0.324612
vt 0.462388 0.804428
vt 0.288405 0.216353
vt 0.625850 0.823022
vt 0.615111 0.240039
vt 0.266850 0.749684
vt 0.805445 0.743058
vt 0.535602 0.819332
vt 0.330822 0.228655
vt 0.584427 0.225277
vt 0.294827 0.771828
vt 0.213499 0.207741
vt 0.757613 0.786116
vt 0.399411 0.223734
vn 0.7072 -0.6707 -0.2237
vn 0.2948 -0.4642 0.8353
vn -0.5088 -0.4208 0.7510
vn 0.1554 -0.5208 -0.8394
vn -0.6289 -0.3408 -0.6988
vn -0.7532 -0.5983 0.2733
vn -0.4299 -0.5167 -0.7404
vn 0.7733 -0.6038 0.1933
vn 0.1402 -0.3685 0.9190
vn -0.3058 -0.4442 -0.8421
vn -0.0476 -0.4230 0.9049
vn -0.6714 -0.0826 0.7364
vn 0.1486 -0.5183 -0.8422
vn -0.3198 -0.1551 -0.9347
vn -0.0263 -0.4795 -0.8771
vn -0.8314 -0.4913 -0.2598
vn 0.7386 -0.5818 0.3405
vn -0.0000 -0.4377 0.8991
vn 0.0288 -0.4471 -0.8940
vn 0.1947 -0.3531 0.9151
vn 0.0329 -0.4557 0.8895
vn 0.4328 -0.6191 -0.6553
vn -0.9047 -0.4258 0.0139
vn -0.1310 -0.4621 -0.8771
vn -0.4780 -0.2646 -0.8375
vn 0.7634 -0.6196 0.1827
vn 0.1244 -0.5187 -0.8459
vn -0.8124 -0.4704 -0.3446
vn -0.5017 -0.5958 0.6272
vn -0.0700 -0.4567 -0.8868
vn 0.5708 -0.5667 0.5941
vn -0.7003 -0.4487 -0.5553
vn -0.1101 -0.4605 0.8808
vn 0.0398 -0.4950 0.8680
vn 0.5713 -0.6587 -0.4897
vn 0.6827 -0.4529 0.5734
vn -0.7013 -0.3666 0.6114
vn -0.8701 -0.4665 -0.1592
vn 0.2571 -0.5499 -0.7947
vn -0.1830 -0.4765 -0.8599
vn -0.7391 -0.5987 0.3087
vn 0.5981 -0.5705 0.5629
vn 0.0000 -1.0000 0.0000
vn 0.0678 0.9280 -0.3663
vn 0.0793 0.8507 0.5196
vn 0.2422 0.9431 0.2279
vn -0.3745 0.8286 -0.4161
vn -0.3979 0.8493 0.3469
vn 0.2941 0.9461 0.1356
vn -0.3301 0.7461 -0.5783
vn -0.0339 0.9026 -0.4292
vn -0.4616 0.8871 0.0071
vn 0.1073 0.9373 -0.3317
vn 0.2324 0.9421 0.2419
vn 0.0181 0.9187 0.3946
vn -0.4143 0.9070 -0.0758
vn 0.2882 0.9551 0.0690
vn -0.3436 0.8987 -0.2724
vn 0.0142 0.8980 -0.4397
vn 0.0545 0.9273 -0.3704
vn -0.0529 0.9043 0.4236
vn 0.0160 0.9021 0.4312
vn -0.3843 0.9087 -0.1631
vn 0.2045 0.9630 -0.1753
vn -0.2873 0.9503 0.1200
vn -0.1512 0.8966 -0.4163
vn 0.1133 0.8389 0.5324
vn -0.0123 0.9125 -0.4088
vn -0.6382 0.3207 0.6999
vn -0.3802 0.9173 -0.1188
vn 0.1635 0.9550 -0.2476
vn -0.1959 0.9496 0.2448
vn -0.0628 0.9050 -0.4207
vn 0.2492 0.9652 -0.0788
vn -0.2930 0.9502 0.1063
vn -0.0244 0.8855 0.4640
vn 0.1409 0.9059 0.3993
vn -0.1888 0.9266 -0.3252
vn -0.0000 0.8933 0.4494
vn 0.0651 0.9272 -0.3690
vn 0.2984 0.9515 0.0746
vn -0.2619 0.8843 0.3865
vn -0.2725 0.5397 -0.7965
vn 0.3325 0.9008 0.2793
vn -0.0857 0.9113 -0.4027
vn 0.0000 1.0000 0.0000
vn -0.8314 -0.4912 -0.2598
vn -0.3802 0.9172 -0.1188
usemtl Meat
s off
f 40/1/1 84/2/1 42/3/1
f 29/4/2 69/5/2 27/6/2
f 5/7/3 49/8/3 7/9/3
f 34/10/4 74/11/4 76/12/4
f 22/13/5 62/14/5 20/15/5
f 25/16/6 65/17/6 67/18/6
f 14/19/7 54/20/7 12/21/7
f 39/22/8 79/23/8 37/24/8
f 17/25/9 55/26/9 59/27/9
f 4/28/10 48/29/10 46/30/10
f 9/31/11 49/8/11 51/32/11
f 31/33/12 71/34/12 29/4/12
f 36/35/13 76/12/13 78/36/13
f 24/37/14 64/38/14 22/13/14
f 28/39/15 44/40/15 70/41/15
f 14/19/16 58/42/16 56/43/16
f 41/44/17 81/45/17 39/22/17
f 19/46/18 59/27/18 61/47/18
f 8/48/19 48/29/19 6/49/19
f 11/50/20 51/32/20 53/51/20
f 33/52/21 73/53/21 31/33/21
f 38/54/22 78/36/22 80/55/22
f 16/56/23 57/57/23 58/42/23
f 2/58/24 46/30/24 44/40/24
f 26/59/25 66/60/25 24/37/25
f 42/3/26 83/61/26 41/44/26
f 30/62/27 70/41/27 72/63/27
f 15/64/28 60/65/28 57/57/28
f 21/66/29 61/47/29 63/67/29
f 10/68/30 50/69/30 8/48/30
f 35/70/31 75/71/31 33/52/31
f 25/16/32 68/72/32 26/59/32
f 13/73/33 53/51/33 55/26/33
f 1/74/34 45/75/34 3/76/34
f 40/1/35 80/55/35 82/77/35
f 1/74/36 69/5/36 43/78/36
f 3/76/37 47/79/37 5/7/37
f 20/15/38 60/65/38 18/80/38
f 32/81/39 72/63/39 74/11/39
f 12/21/40 52/82/40 10/68/40
f 21/66/41 65/17/41 23/83/41
f 37/24/42 77/84/42 35/70/42
f 32/81/43 34/10/43 39/22/43
f 74/11/44 118/85/44 76/12/44
f 55/26/45 101/86/45 59/27/45
f 77/84/46 121/87/46 119/88/46
f 62/14/47 106/89/47 104/90/47
f 47/79/48 87/91/48 89/92/48
f 81/45/49 125/93/49 123/94/49
f 66/60/50 110/95/50 108/96/50
f 50/69/51 94/97/51 92/98/51
f 57/57/52 100/99/52 58/42/52
f 72/63/53 116/100/53 74/11/53
f 75/71/54 119/88/54 117/101/54
f 45/75/55 85/102/55 87/91/55
f 60/65/56 104/90/56 102/103/56
f 83/61/57 126/104/57 125/93/57
f 68/72/58 109/105/58 110/95/58
f 48/29/59 92/98/59 90/106/59
f 70/41/60 114/107/60 72/63/60
f 53/51/61 97/108/61 55/26/61
f 73/53/62 117/101/62 115/109/62
f 60/65/63 99/110/63 57/57/63
f 80/55/64 124/111/64 82/77/64
f 65/17/65 105/112/65 107/113/65
f 48/29/66 88/114/66 46/30/66
f 51/32/67 95/115/67 53/51/67
f 44/40/68 112/116/68 70/41/68
f 71/34/69 115/109/69 113/117/69
f 58/42/70 98/118/70 56/43/70
f 78/36/71 122/119/71 80/55/71
f 61/47/72 105/112/72 63/67/72
f 46/30/73 86/120/73 44/40/73
f 84/2/74 124/111/74 126/104/74
f 65/17/75 109/105/75 67/18/75
f 49/8/76 93/121/76 51/32/76
f 69/5/77 113/117/77 111/122/77
f 54/20/78 98/118/78 96/123/78
f 59/27/79 103/124/79 61/47/79
f 76/12/80 120/125/80 78/36/80
f 79/23/81 123/94/81 121/87/81
f 49/8/82 89/92/82 91/126/82
f 64/38/83 108/96/83 106/89/83
f 69/5/84 85/102/84 43/78/84
f 52/82/85 96/123/85 94/97/85
f 104/90/86 106/89/86 93/121/86
f 40/1/1 82/77/1 84/2/1
f 29/4/2 71/34/2 69/5/2
f 5/7/3 47/79/3 49/8/3
f 34/10/4 32/81/4 74/11/4
f 22/13/5 64/38/5 62/14/5
f 25/16/6 23/83/6 65/17/6
f 14/19/7 56/43/7 54/20/7
f 39/22/8 81/45/8 79/23/8
f 17/25/9 13/73/9 55/26/9
f 4/28/10 6/49/10 48/29/10
f 9/31/11 7/9/11 49/8/11
f 31/33/12 73/53/12 71/34/12
f 36/35/13 34/10/13 76/12/13
f 24/37/14 66/60/14 64/38/14
f 28/39/15 2/58/15 44/40/15
f 14/19/87 16/56/87 58/42/87
f 41/44/17 83/61/17 81/45/17
f 19/46/18 17/25/18 59/27/18
f 8/48/19 50/69/19 48/29/19
f 11/50/20 9/31/20 51/32/20
f 33/52/21 75/71/21 73/53/21
f 38/54/22 36/35/22 78/36/22
f 16/56/23 15/64/23 57/57/23
f 2/58/24 4/28/24 46/30/24
f 26/59/25 68/72/25 66/60/25
f 42/3/26 84/2/26 83/61/26
f 30/62/27 28/39/27 70/41/27
f 15/64/28 18/80/28 60/65/28
f 21/66/29 19/46/29 61/47/29
f 10/68/30 52/82/30 50/69/30
f 35/70/31 77/84/31 75/71/31
f 25/16/32 67/18/32 68/72/32
f 13/73/33 11/50/33 53/51/33
f 1/74/34 43/78/34 45/75/34
f 40/1/35 38/54/35 80/55/35
f 1/74/36 27/6/36 69/5/36
f 3/76/37 45/75/37 47/79/37
f 20/15/38 62/14/38 60/65/38
f 32/81/39 30/62/39 72/63/39
f 12/21/40 54/20/40 52/82/40
f 21/66/41 63/67/41 65/17/41
f 37/24/42 79/23/42 77/84/42
f 1/74/43 3/76/43 5/7/43
f 1/74/43 5/7/43 27/6/43
f 5/7/43 7/9/43 27/6/43
f 9/31/43 11/50/43 13/73/43
f 27/6/43 7/9/43 6/49/43
f 7/9/43 9/31/43 20/15/43
f 33/52/43 31/33/43 29/4/43
f 29/4/43 27/6/43 4/28/43
f 7/9/43 20/15/43 18/80/43
f 6/49/43 7/9/43 18/80/43
f 13/73/43 17/25/43 21/66/43
f 17/25/43 19/46/43 21/66/43
f 21/66/43 23/83/43 13/73/43
f 23/83/43 25/16/43 26/59/43
f 13/73/43 23/83/43 22/13/43
f 26/59/43 24/37/43 23/83/43
f 24/37/43 22/13/43 23/83/43
f 9/31/43 13/73/43 22/13/43
f 35/70/43 33/52/43 29/4/43
f 9/31/43 22/13/43 20/15/43
f 18/80/43 15/64/43 6/49/43
f 37/24/43 35/70/43 29/4/43
f 42/3/43 41/44/43 38/54/43
f 41/44/43 39/22/43 34/10/43
f 42/3/43 38/54/43 40/1/43
f 39/22/43 37/24/43 29/4/43
f 27/6/43 6/49/43 4/28/43
f 15/64/43 16/56/43 10/68/43
f 16/56/43 14/19/43 12/21/43
f 10/68/43 16/56/43 12/21/43
f 10/68/43 8/48/43 15/64/43
f 8/48/43 6/49/43 15/64/43
f 4/28/43 2/58/43 29/4/43
f 2/58/43 28/39/43 39/22/43
f 28/39/43 30/62/43 32/81/43
f 39/22/43 28/39/43 32/81/43
f 34/10/43 36/35/43 41/44/43
f 36/35/43 38/54/43 41/44/43
f 2/58/43 39/22/43 29/4/43
f 74/11/44 116/100/44 118/85/44
f 55/26/45 97/108/45 101/86/45
f 77/84/46 79/23/46 121/87/46
f 62/14/47 64/38/47 106/89/47
f 47/79/48 45/75/48 87/91/48
f 81/45/49 83/61/49 125/93/49
f 66/60/50 68/72/50 110/95/50
f 50/69/51 52/82/51 94/97/51
f 57/57/52 99/110/52 100/99/52
f 72/63/53 114/107/53 116/100/53
f 75/71/54 77/84/54 119/88/54
f 45/75/55 43/78/55 85/102/55
f 60/65/56 62/14/56 104/90/56
f 83/61/57 84/2/57 126/104/57
f 68/72/58 67/18/58 109/105/58
f 48/29/59 50/69/59 92/98/59
f 70/41/60 112/116/60 114/107/60
f 53/51/61 95/115/61 97/108/61
f 73/53/62 75/71/62 117/101/62
f 60/65/63 102/103/63 99/110/63
f 80/55/64 122/119/64 124/111/64
f 65/17/65 63/67/65 105/112/65
f 48/29/66 90/106/66 88/114/66
f 51/32/67 93/121/67 95/115/67
f 44/40/68 86/120/68 112/116/68
f 71/34/69 73/53/69 115/109/69
f 58/42/88 100/99/88 98/118/88
f 78/36/71 120/125/71 122/119/71
f 61/47/72 103/124/72 105/112/72
f 46/30/73 88/114/73 86/120/73
f 84/2/74 82/77/74 124/111/74
f 65/17/75 107/113/75 109/105/75
f 49/8/76 91/126/76 93/121/76
f 69/5/77 71/34/77 113/117/77
f 54/20/78 56/43/78 98/118/78
f 59/27/79 101/86/79 103/124/79
f 76/12/80 118/85/80 120/125/80
f 79/23/81 81/45/81 123/94/81
f 49/8/82 47/79/82 89/92/82
f 64/38/83 66/60/83 108/96/83
f 69/5/84 111/122/84 85/102/84
f 52/82/85 54/20/85 96/123/85
f 89/92/86 87/91/86 85/102/86
f 89/92/86 85/102/86 111/122/86
f 91/126/86 89/92/86 111/122/86
f 113/117/86 115/109/86 117/101/86
f 91/126/86 111/122/86 90/106/86
f 111/122/86 113/117/86 88/114/86
f 90/106/86 111/122/86 88/114/86
f 97/108/86 95/115/86 93/121/86
f 93/121/86 91/126/86 104/90/86
f 104/90/86 91/126/86 102/103/86
f 113/117/86 117/101/86 119/88/86
f 119/88/86 121/87/86 113/117/86
f 121/87/86 123/94/86 113/117/86
f 123/94/86 125/93/86 118/85/86
f 125/93/86 126/104/86 122/119/86
f 126/104/86 124/111/86 122/119/86
f 122/119/86 120/125/86 125/93/86
f 120/125/86 118/85/86 125/93/86
f 116/100/86 114/107/86 112/116/86
f 118/85/86 116/100/86 123/94/86
f 113/117/86 123/94/86 86/120/86
f 90/106/86 102/103/86 91/126/86
f 116/100/86 112/116/86 123/94/86
f 112/116/86 86/120/86 123/94/86
f 86/120/86 88/114/86 113/117/86
f 90/106/86 92/98/86 99/110/86
f 92/98/86 94/97/86 99/110/86
f 94/97/86 96/123/86 100/99/86
f 96/123/86 98/118/86 100/99/86
f 100/99/86 99/110/86 94/97/86
f 99/110/86 102/103/86 90/106/86
f 106/89/86 108/96/86 107/113/86
f 108/96/86 110/95/86 107/113/86
f 110/95/86 109/105/86 107/113/86
f 107/113/86 105/112/86 97/108/86
f 106/89/86 107/113/86 97/108/86
f 105/112/86 103/124/86 101/86/86
f 97/108/86 93/121/86 106/89/86
f 105/112/86 101/86/86 97/108/86