# Blender v2.79 (sub 0) OBJ File: 'player1.blend'
# www.blender.org
mtllib player1.mtl
o Cube.011_Cube.015
v -0.144366 0.571205 0.233487
v -0.144366 0.071206 -0.266513
v -0.144366 0.071205 0.233487
v -0.144366 0.571206 -0.266513
v 0.155635 0.071206 -0.266513
v 0.155635 0.571206 -0.266513
v 0.155635 0.071205 0.233487
v 0.155635 0.571205 0.233487
v -0.140757 1.352355 0.509427
v -0.140757 0.552356 -0.490573
v -0.140757 0.552355 0.509427
v -0.140757 1.352356 -0.490573
v 0.159243 0.552356 -0.490573
v 0.159243 1.352356 -0.490573
v 0.159243 0.552355 0.509427
v 0.159243 1.352355 0.509427
v -0.270646 1.832908 0.245268
v -0.270646 1.332908 -0.254732
v -0.270646 1.332908 0.245268
v -0.270646 1.832908 -0.254732
v 0.229354 1.332908 -0.254732
v 0.229354 1.832908 -0.254732
v 0.229354 1.332908 0.245268
v 0.229354 1.832908 0.245268
v -0.016447 1.171354 0.347826
vt 1.000000 0.000000
vt 0.000000 1.000000
vt 0.000000 0.000000
vt 1.000000 1.000000
vt 1.000000 0.000000
vt 0.000000 1.000000
vt 0.000000 0.000000
vt 1.000000 1.000000
vt 1.000000 0.000000
vt 0.000000 1.000000
vt 0.000000 0.000000
vt 1.000000 1.000000
vt 1.000000 0.000000
vt 0.000000 1.000000
vt 0.000000 0.000000
vt 1.000000 1.000000
vt 1.000000 0.000000
vt 1.000000 1.000000
vt 0.000000 1.000000
vt 0.000000 0.000000
vt 1.000000 0.000000
vt 0.000000 1.000000
vt 0.000000 0.000000
vt 1.000000 1.000000
vt 1.000000 0.000000
vt 0.000000 1.000000
vt 0.000000 0.000000
vt 1.000000 1.000000
vt 1.000000 0.000000
vt 0.000000 1.000000
vt 0.000000 0.000000
vt 1.000000 1.000000
vt 1.000000 0.000000
vt 0.000000 1.000000
vt 0.000000 0.000000
vt 1.000000 1.000000
vt 1.000000 0.000000
vt 1.000000 1.000000
vt 0.000000 1.000000
vt 0.000000 0.000000
vt 0.174193 0.261555
vt 0.087255 0.348493
vt 0.087255 0.261555
vt 0.174193 0.348493
vt 0.000106 0.174405
vt 0.999894 0.261344
vt 0.000106 0.261344
vt 0.999894 0.174406
vt 0.087044 0.348493
vt 0.000106 0.261555
vt 0.087044 0.261555
vt 0.000106 0.348493
vt 0.999894 0.174194
vt 0.000106 0.087256
vt 0.999894 0.087256
vt 0.000106 0.174193
vt 0.000000 0.000000
vt 0.000000 0.000000
vt 0.000000 0.000000
vt 0.000000 0.000000
vt 0.000106 0.087044
vt 0.999894 0.000107
vt 0.999894 0.087044
vt 0.000106 0.000106
vn -1.0000 -0.0000 0.0000
vn 0.0000 0.0000 -1.0000
vn 1.0000 -0.0000 0.0000
vn 0.0000 -0.0000 1.0000
vn 0.0000 -1.0000 -0.0000
vn 0.0000 1.0000 0.0000
usemtl Material
s 1
f 1/1/1 2/2/1 3/3/1
f 1/1/1 4/4/1 2/2/1
s 2
f 4/5/2 5/6/2 2/7/2
f 4/5/2 6/8/2 5/6/2
s 3
f 6/9/3 7/10/3 5/11/3
f 6/9/3 8/12/3 7/10/3
s 4
f 8/13/4 3/14/4 7/15/4
f 8/13/4 1/16/4 3/14/4
s 5
f 5/17/5 3/14/5 2/7/5
f 5/17/5 7/18/5 3/14/5
s 6
f 4/5/6 8/19/6 6/20/6
f 4/5/6 1/16/6 8/19/6
s 7
f 9/21/1 10/22/1 11/23/1
f 9/21/1 12/24/1 10/22/1
s 8
f 12/25/2 13/26/2 10/27/2
f 12/25/2 14/28/2 13/26/2
s 9
f 14/29/3 15/30/3 13/31/3
f 14/29/3 16/32/3 15/30/3
s 10
f 16/33/4 11/34/4 15/35/4
f 16/33/4 9/36/4 11/34/4
s 11
f 13/37/5 11/34/5 10/27/5
f 13/37/5 15/38/5 11/34/5
s 12
f 12/25/6 16/39/6 14/40/6
f 12/25/6 9/36/6 16/39/6
s 13
f 17/41/1 18/42/1 19/43/1
f 17/41/1 20/44/1 18/42/1
s 14
f 20/45/2 21/46/2 18/47/2
f 20/45/2 22/48/2 21/46/2
s 15
f 22/49/3 23/50/3 21/51/3
f 22/49/3 24/52/3 23/50/3
s 16
f 24/53/4 19/54/4 23/55/4
f 24/53/4 17/56/4 19/54/4
s 17
f 21/57/5 19/58/5 18/59/5
f 21/57/5 23/60/5 19/58/5
s 18
f 20/61/6 24/62/6 22/63/6
f 20/61/6 17/64/6 24/62/6
